<svg xmlns="http://www.w3.org/2000/svg" id="Layer_1" data-name="Layer 1" viewBox="0 0 882.56 266.43"><defs><style>      .cls-1 {        fill: #c9252c;      }    </style></defs><path d="M246.3,62.63,217.47,90.14l-3.11-4.23A93.7,93.7,0,0,0,172,53.44c-31.39-12.29-67.72-4.82-92.21,16.89-17,15-27,33.88-30.66,56.2-7.59,46.06,20,88.77,57.71,104.54a77.4,77.4,0,0,0,37.67,6.12,74.75,74.75,0,0,0,29.57-9.6c14.45-8.08,26-19.07,33.5-34a60.59,60.59,0,0,0,5.53-17,11.73,11.73,0,0,0,.12-1.33,3,3,0,0,0-.19-.68H150.8c-.59-2.12-.7-34.93-.16-37.91H257.38a4.1,4.1,0,0,1,.27.87c.33,16.91-.07,33.76-4.69,50.21-9.52,33.94-29.39,59.52-61.15,75.39A120.51,120.51,0,0,1,150,274.82c-57.74,6-106-27.88-128.3-71.88A130.27,130.27,0,0,1,7.62,134.27c4-60.59,47.74-109.88,105.24-122C162.22,1.9,214.33,21.12,245.2,61.08,245.52,61.49,245.81,61.93,246.3,62.63Z" transform="translate(-7.31 -9.51)"></path><path d="M674,28.36v49A20.84,20.84,0,0,1,672.19,76c-2.9-2.52-5.7-5.15-8.68-7.58a92.62,92.62,0,0,0-42.13-19.27C573.17,40,529.07,70.56,516.1,115.72c-10.74,37.41,1.5,77.31,31.16,101.53a86.86,86.86,0,0,0,48,19.86c23.47,2.12,44.71-4.19,63.63-18.15,4.3-3.17,8.21-6.88,12.29-10.35.8-.69,1.59-1.39,2.67-2.34a13.34,13.34,0,0,1,.27,1.75c0,15.36,0,30.72,0,46.08a3.21,3.21,0,0,1-1.88,3.14,136.49,136.49,0,0,1-43.22,15.9,127.65,127.65,0,0,1-34.39,2c-27.07-2.1-51.44-11.41-72.72-28.32-25.67-20.41-42.09-46.73-48-79-12.52-68.54,28.06-135,96.85-153.5a138.6,138.6,0,0,1,48.57-4.21c18.84,1.69,36.54,7.06,52.73,17C672.72,27.49,673.31,27.89,674,28.36Z" transform="translate(-7.31 -9.51)"></path><path d="M355.16,110.35c20.23,23.64,40.37,47.16,60.76,71l21.5-20.44,25.47,26.69L440,209.45l49.55,57.9c-1.34.07-2.2.15-3.06.15-14.28,0-28.57,0-42.86,0a5.09,5.09,0,0,1-4.31-2c-8-9.48-16.11-18.88-24.19-28.31-.57-.67-1.17-1.31-1.88-2.09-.67.57-1.29,1-1.85,1.58-6.79,6.47-13.6,12.91-20.34,19.42-10.52,10.14-22.91,16.77-37.36,18.92-22.47,3.34-42.31-2.59-58.94-18.21a69.1,69.1,0,0,1-21.83-43.91c-2.4-21.63,4.23-40.5,18.61-56.71a66.4,66.4,0,0,1,12.25-10.76q24.94-17.13,49.92-34.2C354.08,111,354.46,110.78,355.16,110.35Zm-6.4,49.32a5.53,5.53,0,0,0-.88.36c-8.09,5.55-16.47,10.72-24.2,16.74C311.9,186,306.91,198.19,310.4,213c2.91,12.36,10.63,21,22.91,24.65,12.09,3.6,22.9.57,32.09-8.09q4.58-4.32,9.11-8.67c4.84-4.62,9.66-9.24,14.64-14Z" transform="translate(-7.31 -9.51)"></path><path d="M843.9,197.54c0,43.67-34.3,77.79-78.19,77.91-44.38.11-78.57-34.94-78.34-78.25.23-43.49,34.38-77.72,78.15-77.68C810.16,119.57,843.83,154.17,843.9,197.54Zm-120.25-.2a49.44,49.44,0,0,0,2,13.16c6.68,21.38,28.78,34,50,28.55,28-7.24,40.81-40.08,25.21-64.7a41.68,41.68,0,0,0-43.66-18.77A42.75,42.75,0,0,0,723.65,197.34Z" transform="translate(-7.31 -9.51)"></path><path class="cls-1" d="M426.24,78.34l-25.57,25.58L356.53,59.79l-50,41.54L283,73q38-31.58,75.32-62.6Z" transform="translate(-7.31 -9.51)"></path><path d="M889.87,244.41a20.9,20.9,0,0,1-41.79-.65A21.21,21.21,0,0,1,870,223.17C880.9,223.68,890.16,233.39,889.87,244.41Z" transform="translate(-7.31 -9.51)"></path></svg>